<?xml version="1.0" standalone="no"?>
<!DOCTYPE svg PUBLIC "-//W3C//DTD SVG 20010904//EN"
 "http://www.w3.org/TR/2001/REC-SVG-20010904/DTD/svg10.dtd">
<svg version="1.0" xmlns="http://www.w3.org/2000/svg"
 width="320.000000pt" height="120.000000pt" viewBox="0 0 320.000000 120.000000"
 preserveAspectRatio="xMidYMid meet">
<metadata>
Created by potrace 1.12, written by Peter Selinger 2001-2015
</metadata>
<g transform="translate(0.000000,120.000000) scale(0.100000,-0.100000)"
fill="#000000" stroke="none">
<path d="M0 600 l0 -600 1600 0 1600 0 0 600 0 600 -1600 0 -1600 0 0 -600z
m408 313 c3 -21 -1 -23 -42 -23 -67 0 -79 -17 -70 -99 3 -36 8 -68 10 -70 3
-3 25 -6 51 -7 47 -3 65 -16 60 -44 -1 -10 -19 -17 -57 -20 l-55 -5 0 -85 0
-85 55 -5 c51 -5 55 -7 58 -32 l3 -28 -80 0 -79 0 -4 83 c-2 45 -5 164 -6 265
l-3 183 78 -3 c72 -3 78 -5 81 -25z m123 4 c72 -47 97 -151 49 -202 -25 -27
-25 -37 0 -53 30 -18 60 -86 60 -135 0 -69 -55 -117 -135 -117 -29 0 -33 4
-37 30 -4 26 -1 30 18 30 61 0 102 50 89 108 -8 38 -35 62 -77 71 -28 6 -33
11 -36 39 -3 29 0 32 22 32 38 0 66 33 66 77 0 43 -32 83 -67 83 -19 0 -23 5
-23 30 0 37 22 40 71 7z m1034 -123 c30 -14 63 -36 73 -49 11 -13 22 -22 24
-19 3 2 6 -70 7 -161 l2 -166 -58 2 c-32 1 -52 4 -45 6 6 3 12 11 12 20 0 12
-2 12 -16 -2 -9 -9 -19 -13 -22 -10 -4 3 0 10 8 15 15 10 14 12 -12 26 -12 7
-14 14 -8 24 8 13 10 12 10 -2 0 -20 20 -25 20 -5 0 8 3 8 9 -2 6 -9 10 33 10
112 1 114 -1 129 -19 147 -43 43 -141 7 -140 -53 0 -8 3 -8 9 1 4 8 7 -12 6
-48 l-2 -62 23 28 c13 15 24 22 24 17 0 -6 -7 -16 -15 -23 -9 -8 -12 -22 -8
-43 5 -25 4 -29 -10 -24 -14 5 -17 0 -16 -26 1 -18 3 -24 6 -14 4 17 25 21 24
4 -1 -4 -1 -14 -1 -23 0 -10 -5 -14 -15 -10 -12 4 -15 -1 -12 -29 5 -40 0 -45
-13 -12 -7 17 -9 18 -9 5 -1 -10 -9 -19 -18 -19 -17 -1 -17 -2 0 -6 33 -9 18
-25 -18 -19 -22 4 -35 3 -35 -4 0 -5 -7 -10 -15 -10 -25 0 -17 18 13 28 15 6
20 11 11 11 -20 1 -29 27 -36 104 -3 36 -1 57 5 57 6 0 10 10 10 23 -1 12 -1
68 0 125 2 95 3 102 22 102 11 0 20 -5 20 -10 0 -20 44 -29 61 -13 14 11 36
21 77 32 2 1 28 -11 57 -25z m-619 2 c16 -12 20 -34 29 -167 l10 -152 28 -10
c33 -11 84 -2 110 18 27 20 36 74 37 208 0 97 3 117 15 117 8 0 24 -9 35 -20
18 -18 19 -35 21 -202 l1 -183 -32 -3 c-25 -3 -33 1 -37 17 l-5 21 -35 -21
c-28 -17 -45 -21 -95 -17 -55 4 -65 8 -89 37 -25 31 -27 41 -34 163 -8 137
-13 150 -54 128 -44 -23 -56 -66 -56 -203 l0 -127 -27 0 c-27 0 -28 2 -28 48
0 27 -3 117 -7 200 -5 136 -4 152 10 152 9 0 24 -11 34 -24 l18 -24 33 29 c36
32 85 38 118 15z m1088 -1 c8 -8 19 -15 25 -15 27 0 3 -36 -107 -166 l-119
-139 109 -3 c87 -2 108 -6 108 -17 0 -8 7 -15 15 -15 8 0 15 -9 15 -20 0 -19
-7 -20 -175 -20 l-175 0 0 33 c0 26 19 53 111 157 60 69 114 133 120 143 9 16
1 17 -106 17 l-116 0 5 28 c2 15 5 28 5 30 1 1 61 2 135 2 106 0 138 -3 150
-15z m150 0 c8 -8 19 -15 25 -15 12 0 15 -191 4 -302 -6 -68 -6 -68 -37 -68
l-31 0 3 200 c1 110 7 200 12 200 5 0 15 -7 24 -15z m256 0 c0 -21 18 -19 23
3 3 9 5 2 6 -16 1 -20 -3 -31 -9 -27 -15 9 -80 -59 -80 -84 0 -16 8 -23 30
-27 18 -4 30 -13 30 -23 1 -13 3 -13 15 3 14 19 15 19 15 -7 0 -26 -2 -27 -50
-27 -57 0 -58 -3 -34 -73 14 -40 64 -93 64 -67 0 5 5 10 11 10 6 0 9 -12 7
-27 -3 -25 -7 -28 -33 -25 -43 5 -99 45 -118 85 -20 41 -22 138 -5 188 16 48
46 88 82 110 37 23 46 24 46 4z m93 -2 c59 -30 87 -56 87 -80 0 -13 4 -23 9
-23 4 0 6 -12 3 -26 -3 -19 -1 -25 7 -20 6 4 11 1 11 -8 0 -9 -4 -16 -10 -16
-5 0 -10 -5 -10 -11 0 -5 5 -7 12 -3 7 4 8 3 4 -4 -4 -8 -36 -12 -82 -12 l-74
0 0 30 c0 29 2 30 45 30 35 0 45 4 45 16 0 29 -39 82 -65 88 -18 5 -25 13 -25
31 0 30 2 30 43 8z m398 -6 c30 -20 67 -73 57 -82 -1 -1 -13 -5 -24 -9 -16 -5
-23 -2 -27 13 -2 10 -16 26 -30 35 -31 21 -101 12 -129 -16 -31 -31 -8 -54 85
-83 45 -14 90 -31 99 -39 24 -18 39 -63 31 -94 -17 -69 -63 -102 -145 -102
-66 0 -114 27 -134 76 -17 40 -17 39 11 48 16 4 23 -1 33 -23 29 -66 172 -68
189 -3 8 34 -19 56 -106 81 -96 29 -125 57 -118 114 9 63 60 107 125 107 35 0
59 -7 83 -23z"/>
</g>
</svg>
